# xmcd
#
# Track frame offsets:
# 150
# 19000
# 39221
# 58239
# 75946
# 92544
# 108713
# 127253
# 145540
# 163794
# 181972
#
# Disc length: 2671 seconds
#
# Revision: 1
# Processed by: cddbd v1.4PL0 Copyright (c) Steve Scherf et al.
# Submitted via: CedeCatalogueitor 2.5 http://usuarios.lycos.es/kakasboy
#
DISCID=880a6d0b
DTITLE=Mónica Molina - Tu Despedida
DYEAR=1900
DGENRE=
TTITLE0=Tu Despedida
TTITLE1=Perdida En Mi Piel
TTITLE2=Entre Tus Ojos Y Los Mios
TTITLE3=Y De Qué Manera
TTITLE4=Agua Y Sed
TTITLE5=De Tu Recuerdo
TTITLE6=Jóvenes Amantes
TTITLE7=Tu Nombre
TTITLE8=Me Sorprende
TTITLE9=Esta Hora De Los Besos
TTITLE10=Un Lugar Lejano
EXTD=
EXTT0=
EXTT1=
EXTT2=
EXTT3=
EXTT4=
EXTT5=
EXTT6=
EXTT7=
EXTT8=
EXTT9=
EXTT10=
PLAYORDER=
